<svg width="213" height="78" viewBox="0 0 213 78" fill="none" xmlns="http://www.w3.org/2000/svg">
<path d="M60.4199 21.714C60.4199 27.473 62.7684 32.9961 66.9487 37.0683C71.129 41.1405 76.7986 43.4282 82.7105 43.4282V33.93C79.3846 33.93 76.195 32.6429 73.8432 30.352C71.4915 28.061 70.1703 24.9539 70.1703 21.714H60.4199Z" fill="#FE590F"/>
<path d="M60.4199 56.2855C60.4199 50.5265 62.7684 45.0034 66.9487 40.9312C71.129 36.859 76.7986 34.5713 82.7105 34.5713V44.0696C79.3846 44.0696 76.195 45.3566 73.8432 47.6475C71.4915 49.9385 70.1703 53.0456 70.1703 56.2855H60.4199Z" fill="#FFBD0D"/>
<path d="M22.2877 34.1018C25.2605 34.0501 28.214 34.5835 30.9743 35.6707C33.7345 36.7578 36.2458 38.3768 38.3603 40.4322C40.4748 42.4876 42.1497 44.9379 43.2865 47.6389C44.4232 50.3398 45.0412 53.3628 45.0218 56.2854L35.1963 56.2854C35.2072 54.6412 34.9164 52.8199 34.2768 51.3004C33.6373 49.7808 32.695 48.4023 31.5055 47.246C30.3159 46.0897 28.9031 45.1789 27.3502 44.5673C25.7974 43.9557 24.1358 43.6556 22.4634 43.6847L22.2877 34.1018Z" fill="#37726D"/>
<path d="M44.5811 21.714C44.5811 27.473 42.2326 32.9961 38.0523 37.0683C33.872 41.1405 28.2023 43.4282 22.2905 43.4282V33.93C25.6164 33.93 28.806 32.6429 31.1578 30.352C33.5095 28.061 34.8307 24.9539 34.8307 21.714H44.5811Z" fill="#00D47D"/>
<path d="M55.4325 21.714L67.311 21.714L46.7802 56.2853L35.18 56.2853L55.4325 21.714Z" fill="#FFA3D4"/>
<path d="M91.257 48V31.2H93.825L101.169 43.464H99.825L107.049 31.2H109.617L109.641 48H106.689L106.665 35.832H107.289L101.145 46.08H99.753L93.513 35.832H94.233V48H91.257ZM119.507 48.168C118.083 48.168 116.835 47.888 115.763 47.328C114.707 46.752 113.883 45.968 113.291 44.976C112.715 43.984 112.427 42.856 112.427 41.592C112.427 40.312 112.707 39.184 113.267 38.208C113.843 37.216 114.627 36.44 115.619 35.88C116.627 35.32 117.771 35.04 119.051 35.04C120.299 35.04 121.411 35.312 122.387 35.856C123.363 36.4 124.131 37.168 124.691 38.16C125.251 39.152 125.531 40.32 125.531 41.664C125.531 41.792 125.523 41.936 125.507 42.096C125.507 42.256 125.499 42.408 125.483 42.552H114.803V40.56H123.899L122.723 41.184C122.739 40.448 122.587 39.8 122.267 39.24C121.947 38.68 121.507 38.24 120.947 37.92C120.403 37.6 119.771 37.44 119.051 37.44C118.315 37.44 117.667 37.6 117.107 37.92C116.563 38.24 116.131 38.688 115.811 39.264C115.507 39.824 115.355 40.488 115.355 41.256V41.736C115.355 42.504 115.531 43.184 115.883 43.776C116.235 44.368 116.731 44.824 117.371 45.144C118.011 45.464 118.747 45.624 119.579 45.624C120.299 45.624 120.947 45.512 121.523 45.288C122.099 45.064 122.611 44.712 123.059 44.232L124.667 46.08C124.091 46.752 123.363 47.272 122.483 47.64C121.619 47.992 120.627 48.168 119.507 48.168ZM132.829 48.168C131.421 48.168 130.333 47.808 129.565 47.088C128.797 46.352 128.413 45.272 128.413 43.848V32.352H131.413V43.776C131.413 44.384 131.565 44.856 131.869 45.192C132.189 45.528 132.629 45.696 133.189 45.696C133.861 45.696 134.421 45.52 134.869 45.168L135.709 47.304C135.357 47.592 134.925 47.808 134.413 47.952C133.901 48.096 133.373 48.168 132.829 48.168ZM126.301 37.68V35.28H134.845V37.68H126.301ZM145.664 48V45.408L145.496 44.856V40.32C145.496 39.44 145.232 38.76 144.704 38.28C144.176 37.784 143.376 37.536 142.304 37.536C141.584 37.536 140.872 37.648 140.168 37.872C139.48 38.096 138.896 38.408 138.416 38.808L137.24 36.624C137.928 36.096 138.744 35.704 139.688 35.448C140.648 35.176 141.64 35.04 142.664 35.04C144.52 35.04 145.952 35.488 146.96 36.384C147.984 37.264 148.496 38.632 148.496 40.488V48H145.664ZM141.632 48.168C140.672 48.168 139.832 48.008 139.112 47.688C138.392 47.352 137.832 46.896 137.432 46.32C137.048 45.728 136.856 45.064 136.856 44.328C136.856 43.608 137.024 42.96 137.36 42.384C137.712 41.808 138.28 41.352 139.064 41.016C139.848 40.68 140.888 40.512 142.184 40.512H145.904V42.504H142.4C141.376 42.504 140.688 42.672 140.336 43.008C139.984 43.328 139.808 43.728 139.808 44.208C139.808 44.752 140.024 45.184 140.456 45.504C140.888 45.824 141.488 45.984 142.256 45.984C142.992 45.984 143.648 45.816 144.224 45.48C144.816 45.144 145.24 44.648 145.496 43.992L146 45.792C145.712 46.544 145.192 47.128 144.44 47.544C143.704 47.96 142.768 48.168 141.632 48.168ZM160.003 48.24C158.723 48.24 157.531 48.032 156.427 47.616C155.339 47.184 154.387 46.584 153.571 45.816C152.771 45.032 152.147 44.112 151.699 43.056C151.251 42 151.027 40.848 151.027 39.6C151.027 38.352 151.251 37.2 151.699 36.144C152.147 35.088 152.779 34.176 153.595 33.408C154.411 32.624 155.363 32.024 156.451 31.608C157.539 31.176 158.731 30.96 160.027 30.96C161.403 30.96 162.659 31.2 163.795 31.68C164.931 32.144 165.891 32.84 166.675 33.768L164.659 35.664C164.051 35.008 163.371 34.52 162.619 34.2C161.867 33.864 161.051 33.696 160.171 33.696C159.291 33.696 158.483 33.84 157.747 34.128C157.027 34.416 156.395 34.824 155.851 35.352C155.323 35.88 154.907 36.504 154.603 37.224C154.315 37.944 154.171 38.736 154.171 39.6C154.171 40.464 154.315 41.256 154.603 41.976C154.907 42.696 155.323 43.32 155.851 43.848C156.395 44.376 157.027 44.784 157.747 45.072C158.483 45.36 159.291 45.504 160.171 45.504C161.051 45.504 161.867 45.344 162.619 45.024C163.371 44.688 164.051 44.184 164.659 43.512L166.675 45.432C165.891 46.344 164.931 47.04 163.795 47.52C162.659 48 161.395 48.24 160.003 48.24ZM174.236 48.168C172.924 48.168 171.756 47.888 170.732 47.328C169.708 46.752 168.9 45.968 168.308 44.976C167.716 43.984 167.42 42.856 167.42 41.592C167.42 40.312 167.716 39.184 168.308 38.208C168.9 37.216 169.708 36.44 170.732 35.88C171.756 35.32 172.924 35.04 174.236 35.04C175.564 35.04 176.74 35.32 177.764 35.88C178.804 36.44 179.612 37.208 180.188 38.184C180.78 39.16 181.076 40.296 181.076 41.592C181.076 42.856 180.78 43.984 180.188 44.976C179.612 45.968 178.804 46.752 177.764 47.328C176.74 47.888 175.564 48.168 174.236 48.168ZM174.236 45.6C174.972 45.6 175.628 45.44 176.204 45.12C176.78 44.8 177.228 44.336 177.548 43.728C177.884 43.12 178.052 42.408 178.052 41.592C178.052 40.76 177.884 40.048 177.548 39.456C177.228 38.848 176.78 38.384 176.204 38.064C175.628 37.744 174.98 37.584 174.26 37.584C173.524 37.584 172.868 37.744 172.292 38.064C171.732 38.384 171.284 38.848 170.948 39.456C170.612 40.048 170.444 40.76 170.444 41.592C170.444 42.408 170.612 43.12 170.948 43.728C171.284 44.336 171.732 44.8 172.292 45.12C172.868 45.44 173.516 45.6 174.236 45.6ZM188.961 48.168C187.729 48.168 186.617 47.896 185.625 47.352C184.649 46.792 183.881 46.024 183.321 45.048C182.761 44.072 182.481 42.92 182.481 41.592C182.481 40.264 182.761 39.112 183.321 38.136C183.881 37.16 184.649 36.4 185.625 35.856C186.617 35.312 187.729 35.04 188.961 35.04C190.033 35.04 190.993 35.28 191.841 35.76C192.689 36.224 193.361 36.936 193.857 37.896C194.353 38.856 194.601 40.088 194.601 41.592C194.601 43.08 194.361 44.312 193.881 45.288C193.401 46.248 192.737 46.968 191.889 47.448C191.041 47.928 190.065 48.168 188.961 48.168ZM189.321 45.6C190.041 45.6 190.681 45.44 191.241 45.12C191.817 44.8 192.273 44.336 192.609 43.728C192.961 43.12 193.137 42.408 193.137 41.592C193.137 40.76 192.961 40.048 192.609 39.456C192.273 38.848 191.817 38.384 191.241 38.064C190.681 37.744 190.041 37.584 189.321 37.584C188.601 37.584 187.953 37.744 187.377 38.064C186.817 38.384 186.361 38.848 186.009 39.456C185.673 40.048 185.505 40.76 185.505 41.592C185.505 42.408 185.673 43.12 186.009 43.728C186.361 44.336 186.817 44.8 187.377 45.12C187.953 45.44 188.601 45.6 189.321 45.6ZM193.209 48V44.976L193.329 41.568L193.089 38.16V30.192H196.065V48H193.209ZM205.629 48.168C204.205 48.168 202.957 47.888 201.885 47.328C200.829 46.752 200.005 45.968 199.413 44.976C198.837 43.984 198.549 42.856 198.549 41.592C198.549 40.312 198.829 39.184 199.389 38.208C199.965 37.216 200.749 36.44 201.741 35.88C202.749 35.32 203.893 35.04 205.173 35.04C206.421 35.04 207.533 35.312 208.509 35.856C209.485 36.4 210.253 37.168 210.813 38.16C211.373 39.152 211.653 40.32 211.653 41.664C211.653 41.792 211.645 41.936 211.629 42.096C211.629 42.256 211.621 42.408 211.605 42.552H200.925V40.56H210.021L208.845 41.184C208.861 40.448 208.709 39.8 208.389 39.24C208.069 38.68 207.629 38.24 207.069 37.92C206.525 37.6 205.893 37.44 205.173 37.44C204.437 37.44 203.789 37.6 203.229 37.92C202.685 38.24 202.253 38.688 201.933 39.264C201.629 39.824 201.477 40.488 201.477 41.256V41.736C201.477 42.504 201.653 43.184 202.005 43.776C202.357 44.368 202.853 44.824 203.493 45.144C204.133 45.464 204.869 45.624 205.701 45.624C206.421 45.624 207.069 45.512 207.645 45.288C208.221 45.064 208.733 44.712 209.181 44.232L210.789 46.08C210.213 46.752 209.485 47.272 208.605 47.64C207.741 47.992 206.749 48.168 205.629 48.168Z" fill="white"/>
</svg>
